<svg xmlns="http://www.w3.org/2000/svg" xmlns:xlink="http://www.w3.org/1999/xlink" width="400" height="400" viewBox="0 0 400 400">
<rect data-name="background" width="100%" height="100%" fill="#ffffff"/><g data-name="icon" fill="#4fa060" data="id:6054834" transform="translate(152.11158059092998,126.4074938053503) scale(0.9577737407301145)">
    <path d="M85.00829,49.52234a2.50464,2.50464,0,1,1-2.98888-1.9008A2.50459,2.50459,0,0,1,85.00829,49.52234Zm-28.259-.96266A6.936,6.936,0,1,1,48.47218,43.297,6.89185,6.89185,0,0,1,56.74924,48.55968Zm-1.46756.32678a5.43139,5.43139,0,1,0-.71813,4.095A5.44415,5.44415,0,0,0,55.28168,48.88646ZM16.8455,47.62154a2.50465,2.50465,0,1,0,2.98888,1.9008A2.50464,2.50464,0,0,0,16.8455,47.62154ZM50.52059,19.92427a2.50465,2.50465,0,1,0-2.98893-1.9008A2.50466,2.50466,0,0,0,50.52059,19.92427ZM49.43246,80.2085a2.50464,2.50464,0,1,0,2.98887,1.90074A2.50459,2.50459,0,0,0,49.43246,80.2085ZM65.96163,20.76842a5.31307,5.31307,0,0,1,5.37813-5.5787,5.196,5.196,0,0,1,4.62577,2.83974,5.19853,5.19853,0,0,1,4.62674-2.83974,5.31308,5.31308,0,0,1,5.37813,5.5787c0,7.08-9.16738,13.94088-9.55776,14.2295a.75244.75244,0,0,1-.89423,0C75.128,34.7093,65.96163,27.84844,65.96163,20.76842Zm1.50279,0c0,5.49407,6.69013,11.223,8.50111,12.67291,1.811-1.45,8.50208-7.17884,8.50208-12.67291a3.82143,3.82143,0,0,0-3.87534-4.07591c-1.99491,0-3.51922,1.49545-3.88416,3.80979a.75179.75179,0,0,1-1.48517,0c-.364-2.31434-1.88827-3.80979-3.88318-3.80979A3.82143,3.82143,0,0,0,67.46442,20.76842ZM24.00887,68.08905l2.20153,3.81328-1.37089-.35766a.75131.75131,0,1,0-.37961,1.45387l3.1083.81107a.739.739,0,0,0,.14394.01847c.01835.00134.03425.01382.05271.01382.02917,0,.05663-.01969.08586-.02312a.73923.73923,0,0,0,.20821-.056c.02635-.01143.05515-.007.08065-.02171a.69508.69508,0,0,0,.06121-.054c.01431-.01046.02593-.02336.03944-.03479a.73661.73661,0,0,0,.25212-.40811l.80367-3.07956a.75131.75131,0,0,0-1.45387-.37961l-.34836,1.335-2.18367-3.7824a2.60057,2.60057,0,0,0-4.50542,0l-2.66706,4.61843a.7513.7513,0,0,0,1.30124.75139l2.66706-4.61842A1.13408,1.13408,0,0,1,24.00887,68.08905Zm6.07963,7.534a.7513.7513,0,0,0-1.30124.75139l2.667,4.61794a1.09956,1.09956,0,0,1-.952,1.64856l-4.40306-.00037.99538-1.00833a.75168.75168,0,0,0-1.07035-1.05567l-2.23871,2.2683a.73372.73372,0,0,0,.01058,1.101l2.26433,2.23577a.75167.75167,0,0,0,1.05665-1.06936l-.98156-.969,4.36674.00037a2.60211,2.60211,0,0,0,2.2532-3.90226Zm-9.14391,7.01789H15.61147a1.099,1.099,0,0,1-.952-1.64807l2.202-3.81261.375,1.36569a.752.752,0,0,0,.725.55229.73538.73538,0,0,0,.19861-.0269.75224.75224,0,0,0,.52636-.92359l-.84476-3.07412a.73457.73457,0,0,0-.962-.54031l-3.06654.84318a.75148.75148,0,1,0,.39918,1.449l1.33016-.36585-2.18428,3.78185a2.60175,2.60175,0,0,0,2.2532,3.90226h5.33312a.7514.7514,0,1,0,0-1.50279ZM21.72436,12.236a6.20387,6.20387,0,1,1-4.70795,7.40288V19.6384A6.21162,6.21162,0,0,1,21.72436,12.236ZM18.484,19.31211a4.70072,4.70072,0,1,0,3.56716-5.60952A4.70932,4.70932,0,0,0,18.484,19.31211Zm-8.4473,9.06906A15.32288,15.32288,0,0,1,18.3744,5.72883a16.02226,16.02226,0,0,1,8.74472-.18541A15.40041,15.40041,0,0,1,38.30367,18.92785a33.083,33.083,0,0,1,6.57-1.73295.75136.75136,0,1,1,.22894,1.48518,31.565,31.565,0,0,0-6.73459,1.82907c-.0014.11362.00508.22894.00141.34195a8.06975,8.06975,0,0,0,.47353,2.99872l1.48714,4.19723a1.73811,1.73811,0,0,1-1.63878,2.31826H36.65829c-.12817,1.05958-.37178,3.12738-.454,4.15908a4.72156,4.72156,0,0,1-1.89609,3.78876c-.77585.5024-2.16417.93484-4.35768.15214L28.212,37.81467l.30721,4.23637a.752.752,0,0,1-.74944.80569H19.051c-.17972.776-.33883,1.55794-.45837,2.33538a.7507.7507,0,0,1-.74161.63741.77435.77435,0,0,1-.11545-.0088.7515.7515,0,0,1-.62812-.85657c.10769-.70156.24814-1.40586.40291-2.10742h-6.0589a.75118.75118,0,0,1-.73476-.90647l1.15351-5.46863A12.35212,12.35212,0,0,0,10.03668,28.38117ZM9.24517,20.3169a13.77524,13.77524,0,0,0,2.06829,7.27178,13.87246,13.87246,0,0,1,2.036,9.14928l-.97153,4.616H26.96161L26.628,36.7546a.75155.75155,0,0,1,1.01262-.75824l2.82555,1.05713a3.59406,3.59406,0,0,0,3.02709-.00244,3.43282,3.43282,0,0,0,1.21319-2.64749c.11545-1.448.52343-4.74268.541-4.8821a.75132.75132,0,0,1,.74553-.65893h2.69836a.23639.23639,0,0,0,.22209-.31406l-1.48713-4.19626a9.58114,9.58114,0,0,1-.55963-3.55346c.01271-.35368.01271-.71226-.00294-1.07377A13.88733,13.88733,0,0,0,26.72582,6.99436a14.65955,14.65955,0,0,0-7.871.15849A13.78041,13.78041,0,0,0,9.24517,20.3169ZM19.932,18.9868a3.20492,3.20492,0,1,1,1.40789,2.00763A3.20693,3.20693,0,0,1,19.932,18.9868Zm1.46757-.32629V18.661a1.69946,1.69946,0,1,0,1.66226-2.07122,1.72025,1.72025,0,0,0-.37276.04109A1.702,1.702,0,0,0,21.39954,18.66051ZM94.993,79.17356a16.49312,16.49312,0,0,1-6.74981,11.48515,13.368,13.368,0,0,1-7.557,2.33881,14.001,14.001,0,0,1-4.5769-.789,14.00712,14.00712,0,0,1-4.57679.789,13.36963,13.36963,0,0,1-7.55795-2.33881A15.8446,15.8446,0,0,1,57.96426,82.35c-.95141.23444-1.91547.43917-2.88413.58831a.77425.77425,0,0,1-.11545.0088.75138.75138,0,0,1-.11349-1.494c.90641-.1396,1.80841-.33106,2.6994-.5488-.13318-.56636-.24337-1.14336-.32488-1.73081a.75148.75148,0,0,1,.48625-.80863,14.07267,14.07267,0,0,1,4.58308-.859,21.48089,21.48089,0,0,1,.76375-10.57673.74952.74952,0,0,1,.8688-.49848,16.84237,16.84237,0,0,1,6.0762,2.6292,21.50865,21.50865,0,0,1,5.59093-8.73671.75114.75114,0,0,1,1.02925,0,21.09088,21.09088,0,0,1,2.36137,2.63758,31.4699,31.4699,0,0,0,2.37984-8.01963.75129.75129,0,1,1,1.48518.228,32.95871,32.95871,0,0,1-2.865,9.23153,21.79164,21.79164,0,0,1,2.22941,4.6589,16.84882,16.84882,0,0,1,6.07535-2.62883.75184.75184,0,0,1,.8688.49848A21.46892,21.46892,0,0,1,89.92334,77.506a14.07056,14.07056,0,0,1,4.58339.85889A.75147.75147,0,0,1,94.993,79.17356ZM82.67266,70.56128a21.89845,21.89845,0,0,1-4.09958,19.29345,16.0451,16.0451,0,0,0,8.22307-7.64283,19.321,19.321,0,0,0,1.14176-14.15563A15.363,15.363,0,0,0,82.67266,70.56128ZM70.32519,76.146A20.32131,20.32131,0,0,0,75.358,89.52918V76.79806a.7514.7514,0,0,1,1.50279,0V89.52918a20.34952,20.34952,0,0,0-.75139-27.6088A20.29988,20.29988,0,0,0,70.32519,76.146Zm-4.90362,6.06544A16.04921,16.04921,0,0,0,73.64586,89.855a21.89838,21.89838,0,0,1-4.09995-19.29327,15.34894,15.34894,0,0,0-5.26611-2.50544A19.3185,19.3185,0,0,0,65.42157,82.21141Zm7.90668,9.13314a17.52837,17.52837,0,0,1-9.24608-8.4517,19.336,19.336,0,0,1-1.46506-3.8891,12.44192,12.44192,0,0,0-3.80741.57388,14.86117,14.86117,0,0,0,6.01017,9.83855A11.89389,11.89389,0,0,0,73.32825,91.34455ZM93.409,79.57763a12.43538,12.43538,0,0,0-3.80759-.574,19.34574,19.34574,0,0,1-1.46488,3.88922,17.52824,17.52824,0,0,1-9.24681,8.452,11.88868,11.88868,0,0,0,8.50814-1.92868A14.86339,14.86339,0,0,0,93.409,79.57763ZM23.1704,11.25567a.75158.75158,0,0,0,.75139-.75139V9.10618a.75139.75139,0,0,0-1.50278,0v1.3981A.75158.75158,0,0,0,23.1704,11.25567Zm0,14.071a.75158.75158,0,0,0-.75139.75139v1.3981a.75139.75139,0,0,0,1.50278,0v-1.3981A.75158.75158,0,0,0,23.1704,25.32668Zm7.78689-6.29194h.001l1.3981-.00147a.75139.75139,0,0,0-.001-1.50278h-.001l-1.39809.00146a.7514.7514,0,0,0,.001,1.50279Zm-16.97286.01712h.001l1.39809-.00147a.75139.75139,0,0,0-.001-1.50278h-.001l-1.3981.00147a.75139.75139,0,0,0,.001,1.50278Zm15.22744,4.208a.751.751,0,1,0-1.06056,1.06349l.99012.98767A.751.751,0,1,0,30.202,24.24753ZM17.12795,13.32249A.75131.75131,0,1,0,18.18851,12.258l-.99012-.98718a.75131.75131,0,1,0-1.06056,1.06447Zm.0088,9.9496-.98718.98962a.75166.75166,0,0,0,1.06448,1.06154l.98718-.98963a.75166.75166,0,0,0-1.06448-1.06153ZM28.67083,13.5304a.74882.74882,0,0,0,.53224-.22063l.98718-.98962a.75166.75166,0,0,0-1.06448-1.06154l-.98718.98962a.75189.75189,0,0,0,.53224,1.28217ZM54.225,17.82253a.753.753,0,0,1,.85706-.62812,33.19954,33.19954,0,0,1,3.945.87547A17.96131,17.96131,0,1,1,81.95478,40.947a33.10244,33.10244,0,0,1,.89558,4.01666.75078.75078,0,0,1-.62812.85657.77425.77425,0,0,1-.11545.0088.75069.75069,0,0,1-.74161-.63741,31.6068,31.6068,0,0,0-.8469-3.80356A17.90262,17.90262,0,0,1,58.58975,19.50748a31.73436,31.73436,0,0,0-3.7366-.82789A.75126.75126,0,0,1,54.225,17.82253ZM59.49554,24.022a16.47048,16.47048,0,1,0,16.47-16.47047A16.4887,16.4887,0,0,0,59.49554,24.022ZM45.72881,82.30974a.75144.75144,0,0,1-.7416.63692.77425.77425,0,0,1-.11545-.0088,33.17359,33.17359,0,0,1-4.4732-1.03476A18.04878,18.04878,0,1,1,18.11739,59.56678a33.08717,33.08717,0,0,1-1.01-4.39817.75129.75129,0,1,1,1.48518-.228,31.55438,31.55438,0,0,0,.98375,4.26621A18.04006,18.04006,0,0,1,40.76282,80.446a31.7083,31.7083,0,0,0,4.33788,1.00668A.75125.75125,0,0,1,45.72881,82.30974ZM39.611,76.91938A16.55412,16.55412,0,1,0,23.05691,93.4735,16.57241,16.57241,0,0,0,39.611,76.91938Z"/>
    </g><g data-name="business_name" fill="#4fa060" data="id:196" transform="translate(69.69762532504032,215.01975243928933) scale(1.1200135703676455)"><path d="M0,19.96l4.12,0l0,25.4l-1.48,0l0-23.96l-1.2,0l0,25.16l13.16,0l0-3.84l-6.52,0l0-1.44l7.96,0l0,6.72l-16.04,0l0-28.04z M5.44,19.96l1.44,0l0,23.92l6.44,0l0,1.48l-7.88,0l0-25.4z M18.44,20.08l1.44,0l0,26.48l15.32,0l0-4l-11.28,0l0-3.84l1.44,0l0,2.4l11.28,0l0,6.88l-18.2,0l0-27.92z M21.16,20.08l15.28,0l0,6.84l-9.6,0l0-1.44l8.16,0l0-3.96l-12.4,0l0,11.56l9.32,0l0,1.44l-10.76,0l0-14.44z M21.16,35.8l12.16,0l0-4l-9.4,0l0-9.08l9.68,0l0,1.44l-8.24,0l0,6.2l9.4,0l0,6.88l-12.16,0l0,6.64l11.2,0l0,1.44l-12.64,0l0-9.52z M42.16,20l4.2,0l0,25.32l-1.44,0l0-23.88l-1.32,0l0,25.12l4.04,0l0-26.56l1.44,0l0,28l-6.92,0l0-28z M57.4,41.4c1.96,0.88,3.68,1.32,5.12,1.32c0.72,0,1.16-0.04,1.36-0.16c0.92-0.24,1.56-0.76,1.96-1.56l0.04-0.08c0.2-0.36,0.28-0.8,0.28-1.36c0-0.28-0.08-0.6-0.24-1l-0.08-0.16c-0.52-1.08-1.68-1.8-3.8-2.48l-0.4-0.12l-0.12-0.04c-3.24-0.96-5.32-2.48-6.32-4.6c-0.4-0.8-0.6-1.68-0.6-2.64c0-1,0.2-1.96,0.6-2.96l0.08-0.16c0.92-1.84,2.4-3.04,4.36-3.64c1.4-0.2,2.2-0.32,2.4-0.32c2.72,0,5.88,1.12,9.44,3.32l0.76-1.24c-3.88-2.36-7.24-3.52-10.16-3.52c-1.16,0-2.12,0.12-2.8,0.4c-2.36,0.64-4.12,2.08-5.28,4.36l-0.12,0.28c-0.48,1.16-0.72,2.32-0.72,3.48c0,1.24,0.24,2.32,0.72,3.28c1.24,2.48,3.64,4.24,7.24,5.32l0.48,0.16c1.64,0.52,2.6,1.08,2.96,1.72l0.04,0.08c0.08,0.12,0.12,0.28,0.12,0.48c0,0.36-0.04,0.6-0.16,0.8c-0.28,0.64-0.96,0.96-2.04,0.96c-1.72,0-4.2-0.88-6.12-2.12l-0.6-0.36l-3.52,5.68l0.6,0.36c2.84,1.92,6.6,3.12,9.64,3.12c1,0,1.92-0.12,2.76-0.36c2.36-0.68,4.12-2.16,5.28-4.4l0.16-0.28c0.48-1.24,0.72-2.4,0.72-3.48c0-0.96-0.32-2.16-0.92-3.64c-1.08-2.16-3.36-3.8-6.92-4.92l-0.56-0.16c-1.12-0.36-1.88-0.72-2.24-1c-0.48-0.4-0.76-0.68-0.88-0.84l-0.08-0.44c0-0.4,0.08-0.76,0.28-1.04c0.32-0.6,0.64-0.76,1.92-0.76c1.72,0,4.2,0.88,6.12,2.12l0.6,0.36l2.16-3.44l-0.64-0.36c-2.44-1.6-5.76-2.72-8.2-2.72c-1.08,0-1.76,0.08-2.12,0.28c-1.64,0.48-2.88,1.52-3.68,3.08c-0.36,0.68-0.52,1.48-0.52,2.48c0,0.76,0.16,1.48,0.48,2.16c0.84,1.8,2.72,3.12,5.64,4l0.52,0.16l1.08,0.4c0.6,0.24,1.24,0.56,1.96,0.96c1.28,0.76,1.92,1.84,1.92,3.28c0,0.8-0.2,1.56-0.56,2.24c-0.84,1.48-2.28,2.24-4.28,2.24c-1.36,0-3.28-0.52-5.76-1.52l-0.68,1.16l-0.04,0.08c2.28,1.16,4.44,1.72,6.52,1.72c1.16,0,2.24-0.24,3.2-0.72c1.88-0.92,3.04-2.84,3.04-5.24c0-3.8-2.92-4.92-6-6l-0.52-0.16c-2.52-0.76-4.08-1.8-4.72-3.2c-0.24-0.48-0.36-1-0.36-1.6c0-0.76,0.12-1.36,0.4-1.88c0.64-1.16,1.56-1.92,2.76-2.28l1.6-0.2c2.12,0,4.44,0.72,6.96,2.12l-0.64,1c-2.6-1.28-4.68-1.92-6.2-1.92c-0.76,0-1.2,0.04-1.4,0.16c-0.88,0.24-1.52,0.76-1.96,1.6l-0.04,0.08c-0.2,0.36-0.28,0.84-0.28,1.44c0,0.44,0.08,0.76,0.2,0.96c0.52,1.08,1.88,1.96,4.04,2.6l0.52,0.16l1,0.32c0.12,0.04,0.76,0.32,1.92,0.88c1.56,0.88,2.68,2,3.32,3.32c0.4,0.8,0.6,1.68,0.6,2.64c0,1.16-0.2,2.16-0.64,3l-0.08,0.16c-0.92,1.84-2.4,3.04-4.36,3.64c-1.4,0.2-2.2,0.32-2.4,0.32c-2.04,0-4.68-0.76-7.12-1.92l-1.12-0.6l2-3.24z M88.36,48c-3.88,0-6.84-1-8.8-3c-1.92-1.92-2.92-4.76-2.92-8.12l0-16.84l6.8,0l0,16.84c0,3.04,1.48,4.32,4.72,4.32c3.16,0,4.88-1.56,4.88-4.32l0-16.84l4.12,0l0,16.84c0,2.12-0.56,4.12-1.64,5.56c-1.44,1.96-3.72,2.88-7.24,2.88c-2.04,0-3.68-0.28-4.92-0.88c-2.52-1.16-4.04-3.76-4.04-7.56l0-14.28l1.44,0l0,14.28c0,4.52,2.6,7,7.52,7s7.44-2.48,7.44-7l0-15.4l-1.24,0l0,15.4c0,3.52-2.36,5.76-6.32,5.76c-4,0-6.12-2.04-6.12-5.76l0-15.4l-3.96,0l0,15.4c0,6.36,3.52,9.68,10.28,9.68c3.52,0,5.92-0.84,7.56-2.56s2.52-4.2,2.52-7.12l0-16.84l1.44,0l0,16.84c0,3.36-1.04,6.16-2.96,8.12c-1.92,2-4.76,3-8.56,3z M122.6,46.56l-4.6,0l-5.52-10.28l-3.72,0.04l0,10.24l-4.04,0l0-26.56l-1.44,0l0,28l6.96,0l0-10.28l1.4,0l5.48,10.28l7.88,0l-5.52-10.32l-1.32,0.52z M113.08,21.44c5.8,0,9.08,2.6,9.08,7.36c0,4.32-2.6,6.96-7.12,7.44l-1.08,0.12l5,9.24l1.64,0l-4.36-8.12c4.8-0.84,7.36-3.76,7.36-8.68c0-1.64-0.36-3.12-1.04-4.44c-1.6-2.84-4.88-4.36-9.48-4.36l-7.08,0l0,25.56l1.44,0l0-24.12l5.64,0z M112.76,35.04c5.48,0,8.08-1.88,8.08-6.04c0-3.96-2.72-6.2-7.08-6.2l-5.04,0l0,4.2l4.6,0c2.12,0,3.2,0.6,3.2,1.8c0,1.4-1.32,2.08-4,2.08l-2.32,0l0-2.48l-1.48,0l0,3.92l3.8,0c3.56,0,5.44-1.24,5.44-3.52c0-0.72-0.16-1.28-0.52-1.72c-0.68-1-2.04-1.48-4.12-1.48l-3.12,0l0-1.36l3.56,0c3.56,0,5.64,1.72,5.64,4.76c0,3.16-2.12,4.64-6.64,4.64l-4,0l0,1.4l4,0z M126.6,20.08l1.44,0l0,26.48l15.32,0l0-4l-11.28,0l0-3.84l1.44,0l0,2.4l11.28,0l0,6.88l-18.2,0l0-27.92z M129.32,20.08l15.28,0l0,6.84l-9.6,0l0-1.44l8.16,0l0-3.96l-12.4,0l0,11.56l9.32,0l0,1.44l-10.76,0l0-14.44z M129.32,35.8l12.16,0l0-4l-9.4,0l0-9.08l9.68,0l0,1.44l-8.24,0l0,6.2l9.4,0l0,6.88l-12.16,0l0,6.64l11.2,0l0,1.44l-12.64,0l0-9.52z M147.12,19.96l4.12,0l0,25.4l-1.48,0l0-23.96l-1.2,0l0,25.16l13.16,0l0-3.84l-6.52,0l0-1.44l7.96,0l0,6.72l-16.04,0l0-28.04z M152.56,19.96l1.44,0l0,23.92l6.44,0l0,1.48l-7.88,0l0-25.4z M178.32,45.44l1.44,0l-0.04-11.64l8.52-12.36l1.56,0l-8.68,12.44l0,12.68l-4.12,0l0.04-12.68l-9.72-13.88l-1.76,0l9.96,14.32l0,13.68l7.04,0l0-13.68l10-14.32l-5.04,0l-9.2,13.32l0,12.12z M184.2,20l-6.68,9.8l-5.92-8.36l1.56,0l4.48,6.32l0.88-1.28l-4.6-6.48l-5.04,0l7.96,11.32l0.68,1.04l8.44-12.36l-1.76,0z M194.36,20l1.44,0l0,26.56l3.92,0l0-10l9.36,0l0-1.32l-9.32,0l0-1.44l10.76,0l0,4.2l-9.36,0l0,10l-6.8,0l0-28z M197.04,20l15.44,0l0,6.8l-10,0l0-1.44l8.56,0l0-3.92l-12.6,0l0,24l-1.4,0l0-25.44z M199.72,22.6l10.08,0l0,1.44l-8.64,0l0,7.08l9.36,0l0,1.48l-10.8,0l0-10z M214.48,20.08l1.44,0l0,26.48l15.32,0l0-4l-11.28,0l0-3.84l1.44,0l0,2.4l11.28,0l0,6.88l-18.2,0l0-27.92z M217.2,20.08l15.28,0l0,6.84l-9.6,0l0-1.44l8.16,0l0-3.96l-12.4,0l0,11.56l9.32,0l0,1.44l-10.76,0l0-14.44z M217.2,35.8l12.16,0l0-4l-9.4,0l0-9.08l9.68,0l0,1.44l-8.24,0l0,6.2l9.4,0l0,6.88l-12.16,0l0,6.64l11.2,0l0,1.44l-12.64,0l0-9.52z"/></g></svg>